<svg width="1191" height="128" viewBox="0 0 1191 128" fill="none" xmlns="http://www.w3.org/2000/svg">
<path d="M593.646 0.364716C594.339 0.22847 594.685 0.160347 595.034 0.133164C595.344 0.109017 595.656 0.109017 595.966 0.133164C596.315 0.160347 596.661 0.228468 597.353 0.36471L1149.34 108.981C1175.36 114.101 1188.38 116.661 1189.72 119.164C1190.87 121.304 1190.61 123.925 1189.07 125.803C1187.27 128 1174.01 128 1147.49 128H43.5105C16.9895 128 3.72903 128 1.92867 125.803C0.38916 123.925 0.133732 121.304 1.28164 119.164C2.62405 116.661 15.6351 114.101 41.6571 108.981L593.646 0.364716Z" fill="white"/>
</svg>
